<svg width="500" height="500" viewBox="0 0 500 500" fill="none" xmlns="http://www.w3.org/2000/svg">
<path d="M416.667 0H83.3333C37.3096 0 0 37.3096 0 83.3333V416.667C0 462.69 37.3096 500 83.3333 500H416.667C462.69 500 500 462.69 500 416.667V83.3333C500 37.3096 462.69 0 416.667 0Z" fill="#6A63EC"/>
<path d="M377.447 142.242C367.598 132.388 351.593 132.487 341.867 142.461L227.547 259.692C218.002 269.478 202.363 269.783 192.445 260.377L158.115 227.818C148.28 218.492 132.804 218.7 123.225 228.288L109.263 242.265C99.403 252.133 99.5282 268.162 109.54 277.877L192.488 358.353C202.36 367.93 218.113 367.735 227.743 357.917L391.332 191.147C400.933 181.358 400.858 165.664 391.167 155.967L377.447 142.242Z" fill="white"/>
<g clip-path="url(#clip0)">
<path d="M231.453 220.939L221.392 227.322L182.276 190.8L192.399 178.495L214.583 172.211L231.033 154.593C232.226 153.315 234.168 153.248 235.446 154.442L253.688 171.474C254.966 172.667 255.033 174.609 253.839 175.887L237.39 193.505L236.397 198.045L231.453 220.939Z" fill="#E6EEFF"/>
<path d="M231.453 220.939L221.392 227.322L201.675 208.912L244.575 162.965L253.688 171.474C254.966 172.667 255.033 174.609 253.839 175.887L237.39 193.505L236.397 198.045L231.453 220.939Z" fill="#DAE2F2"/>
<path d="M200.632 250.655L159.828 212.556C150.973 204.289 154.53 189.499 166.211 186.138L192.399 178.495C195.884 179.612 199.59 180.766 203.196 184.133C208.399 188.991 209.814 194.156 210.823 199.114C212.03 204.684 212.656 210.052 217.494 214.569C221.739 218.533 226.52 218.811 231.453 220.939L226.552 242.476C223.999 254.36 209.533 258.965 200.632 250.655Z" fill="#EC63AD"/>
<path d="M200.632 250.655L180.367 231.734L210.823 199.114C212.03 204.684 212.656 210.052 217.494 214.569C221.739 218.533 226.52 218.811 231.453 220.939L226.552 242.476C223.999 254.36 209.533 258.965 200.632 250.655Z" fill="#EC63AD"/>
<path d="M249.3 175.92L231.058 158.888C227.282 155.363 227.079 149.424 230.604 145.649C234.128 141.874 240.067 141.67 243.842 145.195L262.1 162.241C265.875 165.766 266.079 171.705 262.554 175.48C259.029 179.255 253.075 179.445 249.3 175.92Z" fill="#C4CAD9"/>
<path d="M247.447 182.733L243.185 187.297L236.217 180.791C234.985 179.641 234.873 177.656 236.066 176.378C237.259 175.1 239.246 175.077 240.479 176.227L247.447 182.733Z" fill="#979CA7"/>
<path d="M236.397 198.045L227.694 189.92C226.462 188.769 226.349 186.785 227.543 185.507C228.736 184.229 230.723 184.205 231.955 185.356L238.924 191.862L237.39 193.505L236.397 198.045Z" fill="#979CA7"/>
<path d="M183.594 200.574C184.855 201.751 186.83 201.683 188.007 200.422C189.184 199.162 189.116 197.186 187.856 196.01C186.595 194.833 184.62 194.901 183.443 196.161C182.266 197.421 182.334 199.397 183.594 200.574Z" fill="#E6EEFF"/>
<path d="M206.718 230.708C207.979 231.884 209.954 231.817 211.131 230.556C212.308 229.296 212.24 227.32 210.98 226.143C209.719 224.967 207.744 225.034 206.567 226.295C205.39 227.555 205.458 229.531 206.718 230.708Z" fill="#DAE2F2"/>
<path d="M262.1 162.241L253.098 153.836L240.313 167.529L249.3 175.92C253.075 179.445 259.029 179.255 262.554 175.48C266.079 171.705 265.875 165.766 262.1 162.241Z" fill="#B8BFCC"/>
<path d="M188.89 222.605C187.63 221.428 187.562 219.452 188.739 218.192C189.915 216.932 191.891 216.864 193.152 218.041C194.412 219.217 194.48 221.193 193.303 222.454C192.126 223.714 190.15 223.782 188.89 222.605Z" fill="#E6EEFF"/>
<path d="M193.303 222.454C194.48 221.193 194.412 219.217 193.152 218.041L188.89 222.605C190.15 223.782 192.126 223.714 193.303 222.454Z" fill="#DAE2F2"/>
</g>
<defs>
<clipPath id="clip0">
<rect width="106.573" height="106.573" fill="white" transform="translate(214.015 117.346) rotate(43.0356)"/>
</clipPath>
</defs>
</svg>
