<svg width="263" height="246" viewBox="0 0 263 246" fill="none" xmlns="http://www.w3.org/2000/svg">
<path d="M250.952 143.005C249.426 143.006 247.913 142.703 246.503 142.116C245.094 141.529 243.816 140.668 242.741 139.584L123.006 19.9244C120.828 17.7368 119.61 14.7741 119.617 11.6874C119.624 8.60078 120.855 5.64373 123.043 3.46619C125.231 1.28865 128.195 0.0690439 131.282 0.0761724C134.368 0.0833009 137.325 1.31661 139.502 3.50424L259.085 123.087C260.696 124.724 261.791 126.798 262.231 129.051C262.672 131.304 262.44 133.638 261.565 135.76C260.69 137.883 259.21 139.702 257.309 140.99C255.409 142.278 253.172 142.979 250.876 143.005H250.952Z" fill="#C3C4C5"/>
<path d="M49.7154 245.255C46.7339 245.266 43.7559 245.012 40.8195 244.495C32.3976 243.169 24.4188 239.839 17.5525 234.785C10.6862 229.731 5.13369 223.101 1.36432 215.454C-0.0168047 212.692 -0.243328 209.494 0.733275 206.565C1.70988 203.635 3.81006 201.213 6.57231 199.832C9.33456 198.451 12.531 198.223 15.4608 199.2C18.3906 200.177 20.8133 202.277 22.1944 205.039C24.3734 209.346 27.546 213.072 31.4504 215.91C35.3548 218.747 39.8794 220.615 44.6485 221.358C49.4176 222.101 54.2943 221.698 58.8767 220.182C63.4592 218.667 67.6146 216.081 71.0002 212.641L123 160.794C125.176 158.611 128.129 157.381 131.211 157.374C132.75 157.372 134.272 157.672 135.694 158.259C137.115 158.846 138.408 159.708 139.497 160.794L191.573 212.946C194.522 215.913 198.053 218.24 201.942 219.781C205.832 221.322 209.998 222.044 214.179 221.901C218.36 221.758 222.467 220.754 226.243 218.952C230.019 217.149 233.381 214.587 236.121 211.425L131.211 106.59L87.2701 150.455C81.2466 156.472 73.8787 160.972 65.7756 163.584C57.6724 166.196 49.0653 166.847 40.6618 165.481C32.2583 164.115 24.2998 160.772 17.4411 155.727C10.5825 150.683 5.01986 144.082 1.21213 136.467C0.128197 134.275 -0.241207 131.798 0.154197 129.385C0.549602 126.972 1.69026 124.743 3.41708 123.011L123 3.4281C124.078 2.34489 125.359 1.48462 126.77 0.896488C128.181 0.308353 129.694 0.00356103 131.222 3.10964e-05C132.751 -0.00349884 134.264 0.293531 135.677 0.875143C137.09 1.45676 138.376 2.31184 139.459 3.39005C140.543 4.46826 141.403 5.74896 141.991 7.15962C142.579 8.57028 142.884 10.0829 142.888 11.6113C142.891 13.1396 142.593 14.6533 142.011 16.0666C141.43 17.48 140.575 18.7651 139.497 19.8483L26.5282 132.818C29.2878 135.923 32.6546 138.431 36.4208 140.185C40.1869 141.939 44.2725 142.903 48.4255 143.017C52.5786 143.131 56.7109 142.393 60.5676 140.848C64.4243 139.303 67.9222 136.984 70.8481 134.034L123 81.8829C125.033 79.8316 127.761 78.6159 130.645 78.4752C133.53 78.3345 136.362 79.2792 138.585 81.1228C139.145 81.5448 139.655 82.029 140.105 82.5668L259.232 201.694C261.241 203.646 262.485 206.254 262.736 209.043C262.987 211.833 262.23 214.62 260.602 216.899C256.656 224.316 251.026 230.705 244.165 235.553C237.304 240.401 229.403 243.572 221.095 244.814C212.786 246.056 204.301 245.333 196.322 242.703C188.344 240.073 181.094 235.61 175.153 229.671L131.211 185.73L87.2701 229.671C77.3081 239.632 63.8032 245.236 49.7154 245.255Z" fill="#C3C4C5"/>
</svg>
