<svg width="66" height="66" viewBox="0 0 66 66" fill="none" xmlns="http://www.w3.org/2000/svg">
<path d="M45.6699 0H20.1001C8.99917 0 0 8.99905 0 20.1V45.67C0 56.771 8.99917 65.77 20.1001 65.77H45.6699C56.7708 65.77 65.77 56.771 65.77 45.67V20.1C65.77 8.99905 56.7708 0 45.6699 0Z" fill="#6A63EC"/>
<path d="M48.6001 35.5701C48.3993 35.5701 48.2003 35.5304 48.0149 35.4531C47.8295 35.3759 47.6614 35.2626 47.52 35.12L31.77 19.38C31.4836 19.0922 31.3233 18.7025 31.3242 18.2965C31.3252 17.8905 31.4871 17.5015 31.7749 17.2151C32.0627 16.9287 32.4526 16.7682 32.8586 16.7692C33.2647 16.7701 33.6535 16.9323 33.9399 17.2201L49.6699 32.9501C49.8817 33.1654 50.0258 33.4381 50.0837 33.7345C50.1417 34.0309 50.1112 34.3378 49.9961 34.6171C49.881 34.8963 49.6863 35.1355 49.4363 35.3049C49.1863 35.4744 48.8921 35.5666 48.5901 35.5701H48.6001Z" fill="white"/>
<path d="M22.1294 49.02C21.7372 49.0215 21.3455 48.9881 20.9592 48.92C19.8514 48.7456 18.8019 48.3076 17.8987 47.6428C16.9955 46.978 16.2651 46.1059 15.7693 45.1C15.5876 44.7366 15.5578 44.3161 15.6863 43.9307C15.8148 43.5453 16.091 43.2267 16.4544 43.045C16.8177 42.8634 17.2382 42.8335 17.6236 42.9619C18.0089 43.0904 18.3276 43.3666 18.5093 43.73C18.7959 44.2965 19.2132 44.7867 19.7268 45.1599C20.2404 45.5332 20.8356 45.7789 21.4629 45.8766C22.0902 45.9743 22.7317 45.9213 23.3345 45.7219C23.9373 45.5226 24.4839 45.1825 24.9292 44.73L31.7693 37.91C32.0555 37.6229 32.444 37.4611 32.8494 37.4601C33.0517 37.4598 33.252 37.4993 33.439 37.5765C33.626 37.6538 33.796 37.7671 33.9392 37.91L40.7893 44.77C41.1773 45.1604 41.6417 45.4665 42.1533 45.6692C42.665 45.8719 43.2129 45.9668 43.763 45.948C44.313 45.9292 44.8532 45.7972 45.3499 45.5601C45.8465 45.323 46.2888 44.986 46.6492 44.5701L32.8494 30.78L27.0694 36.5501C26.277 37.3415 25.3079 37.9334 24.242 38.277C23.1761 38.6206 22.0439 38.7062 20.9385 38.5265C19.8331 38.3468 18.7862 37.9071 17.8841 37.2435C16.9819 36.58 16.2502 35.7117 15.7493 34.7101C15.6067 34.4217 15.5581 34.0959 15.6101 33.7784C15.6621 33.461 15.8122 33.1678 16.0393 32.9401L31.7693 17.2101C31.9111 17.0676 32.0796 16.9544 32.2652 16.8771C32.4507 16.7997 32.6498 16.7596 32.8508 16.7592C33.0519 16.7587 33.2509 16.7978 33.4368 16.8743C33.6227 16.9508 33.7919 17.0633 33.9343 17.2051C34.0768 17.3469 34.19 17.5154 34.2674 17.7009C34.3447 17.8865 34.3848 18.0855 34.3853 18.2865C34.3857 18.4875 34.3465 18.6866 34.27 18.8726C34.1935 19.0585 34.0811 19.2275 33.9392 19.37L19.0794 34.23C19.4424 34.6385 19.8852 34.9684 20.3806 35.1991C20.876 35.4298 21.4134 35.5567 21.9597 35.5717C22.506 35.5867 23.0496 35.4895 23.5569 35.2863C24.0642 35.083 24.5243 34.778 24.9092 34.39L31.7693 27.53C32.0367 27.2602 32.3955 27.1003 32.7749 27.0818C33.1543 27.0633 33.527 27.1875 33.8194 27.4301C33.893 27.4856 33.9601 27.5492 34.0193 27.62L49.6892 43.29C49.9535 43.5468 50.1171 43.8898 50.1502 44.2567C50.1832 44.6237 50.0836 44.9903 49.8694 45.29C49.3504 46.2657 48.6098 47.1061 47.7073 47.7438C46.8048 48.3815 45.7655 48.7987 44.6726 48.962C43.5797 49.1254 42.4636 49.0303 41.4141 48.6843C40.3646 48.3384 39.411 47.7513 38.6294 46.9701L32.8494 41.1901L27.0694 46.9701C25.7589 48.2804 23.9825 49.0175 22.1294 49.02Z" fill="white"/>
</svg>
