<svg width="500" height="500" viewBox="0 0 500 500" fill="none" xmlns="http://www.w3.org/2000/svg">
<path d="M416.667 0H83.3333C37.3096 0 0 37.3096 0 83.3333V416.667C0 462.69 37.3096 500 83.3333 500H416.667C462.69 500 500 462.69 500 416.667V83.3333C500 37.3096 462.69 0 416.667 0Z" fill="#6A63EC"/>
<path d="M377.447 142.242C367.598 132.388 351.593 132.487 341.867 142.461L227.547 259.692C218.002 269.478 202.363 269.783 192.445 260.377L158.115 227.818C148.28 218.492 132.804 218.7 123.225 228.288L109.263 242.265C99.403 252.133 99.5282 268.162 109.54 277.877L192.488 358.353C202.36 367.93 218.113 367.735 227.743 357.917L391.332 191.147C400.933 181.358 400.858 165.664 391.167 155.967L377.447 142.242Z" fill="white"/>
<path d="M279.825 137.78C276.634 128.879 270.517 121.926 262.583 118.206C257.175 115.637 251.103 114.309 245.03 114.309C231.556 114.309 219.056 120.774 213.25 130.827L212.363 132.289L211.61 131.004C205.803 120.951 193.304 114.486 179.829 114.486C173.757 114.486 167.684 115.814 162.277 118.383C154.387 122.103 148.27 129.056 145.079 137.957C141.356 148.32 141.932 160.41 146.63 170.286C157.445 193.137 208.684 238.087 210.856 239.991C211.255 240.346 211.831 240.479 212.363 240.479H212.674C213.205 240.434 213.693 240.124 214.092 239.77C217.106 237.157 267.503 192.783 278.229 170.109C282.928 160.189 283.548 148.143 279.825 137.78V137.78Z" fill="#EC63AD" fill-opacity="0.56"/>
<path d="M268.921 127.993C265.73 119.091 259.613 112.139 251.679 108.419C246.271 105.85 240.199 104.521 234.126 104.521C220.652 104.521 208.152 110.987 202.346 121.04L201.459 122.501L200.706 121.217C194.899 111.164 182.4 104.699 168.925 104.699C162.853 104.699 156.781 106.027 151.373 108.596C143.528 112.316 137.411 119.269 134.175 128.17C130.452 138.533 131.028 150.623 135.726 160.499C146.542 183.35 197.781 228.3 199.952 230.204C200.351 230.559 200.928 230.691 201.459 230.691H201.77C202.302 230.647 202.789 230.337 203.188 229.983C206.202 227.37 256.599 182.996 267.325 160.321C272.068 150.401 272.644 138.356 268.921 127.993Z" fill="#EC63AD"/>
<path d="M282.396 136.85C279.293 128.17 273.575 121.217 266.173 116.966C262.671 112.183 258.15 108.419 252.876 105.939C247.114 103.237 240.642 101.776 234.171 101.776C220.785 101.776 208.285 107.799 201.504 117.364C194.722 107.931 182.267 101.953 168.97 101.953C162.498 101.953 156.027 103.414 150.265 106.116C141.71 110.146 135.062 117.63 131.649 127.24C127.704 138.267 128.324 151.11 133.289 161.65C144.015 184.369 192.639 227.414 198.135 232.241C198.224 232.33 198.312 232.374 198.401 232.463C203.72 237.379 207.665 240.877 209.039 242.029C209.881 242.781 211.078 243.224 212.363 243.224C212.585 243.224 212.807 243.224 212.984 243.18C214.048 243.091 215.111 242.56 215.954 241.763C221.627 236.759 269.941 194.023 280.711 171.26C285.72 160.72 286.341 147.877 282.396 136.85V136.85ZM201.459 227.901C198.445 225.244 186.212 214.394 173.003 201.286C158.465 186.849 147.916 174.803 141.976 165.901C140.381 163.466 139.095 161.296 138.164 159.347C133.776 150.091 133.244 138.754 136.702 129.1C139.671 120.863 145.256 114.486 152.525 111.076C157.578 108.684 163.208 107.444 168.925 107.444C175.973 107.444 182.666 109.304 188.162 112.581C192.107 114.929 195.431 118.029 197.781 121.66C198.002 121.97 198.179 122.324 198.357 122.634L199.11 123.919C199.332 124.317 199.686 124.671 200.085 124.893C200.484 125.114 200.972 125.247 201.415 125.247C201.858 125.247 202.302 125.159 202.701 124.937C203.144 124.716 203.498 124.361 203.764 123.919L204.651 122.413C205.005 121.749 205.449 121.129 205.892 120.509C211.654 112.404 222.469 107.267 234.082 107.267C239.756 107.267 245.429 108.507 250.482 110.899C251.413 111.341 252.344 111.829 253.23 112.404C255.757 113.954 258.017 115.859 260.012 118.117C260.854 119.091 261.652 120.11 262.405 121.173C264.001 123.52 265.331 126.133 266.306 128.923C269.763 138.621 269.231 149.914 264.843 159.17C259.835 169.71 245.739 185.387 232.088 199.071L231.467 199.691C216.884 214.35 202.922 226.617 201.459 227.901ZM212.363 237.689C211.255 236.714 208.817 234.544 205.537 231.577C207.576 229.806 212.452 225.466 218.702 219.62L225.173 226.086C218.17 232.551 213.117 237.024 212.363 237.689V237.689ZM229.118 222.366L222.647 215.9C226.148 212.623 229.916 208.947 233.772 205.139L240.243 211.604C236.387 215.457 232.575 219.089 229.118 222.366V222.366ZM244.099 207.751L237.628 201.286C240.864 198.009 244.144 194.599 247.246 191.233L253.762 197.743C250.615 201.109 247.335 204.474 244.099 207.751V207.751ZM257.441 193.713L250.925 187.203C254.338 183.394 257.53 179.63 260.366 175.999L266.882 182.509C264.09 186.096 260.854 189.904 257.441 193.713ZM275.791 168.913C274.506 171.659 272.556 174.803 270.162 178.124L263.646 171.614C266.262 167.983 268.389 164.529 269.852 161.473C270.162 160.853 270.428 160.233 270.694 159.569L277.077 165.946C276.678 166.964 276.279 167.983 275.791 168.913V168.913ZM278.717 159.967L272.733 153.989L272.6 153.856C274.683 145.929 274.595 137.337 272.29 129.499C274.373 132.2 276.057 135.3 277.254 138.71C279.648 145.397 280.135 152.926 278.717 159.967Z" fill="#272727"/>
</svg>
