<svg width="100" height="100" viewBox="0 0 100 100" fill="none" xmlns="http://www.w3.org/2000/svg">
<path d="M69.4388 0H30.5612C13.6828 0 0 13.6826 0 30.561V69.439C0 86.3174 13.6828 100 30.5612 100H69.4388C86.3172 100 100 86.3174 100 69.439V30.561C100 13.6826 86.3172 0 69.4388 0Z" fill="#FF4E73"/>
<path d="M73.8941 54.0825C73.5887 54.0826 73.2861 54.0221 73.0043 53.9047C72.7224 53.7873 72.4668 53.6151 72.2519 53.3982L48.3048 29.4663C47.8693 29.0288 47.6255 28.4363 47.627 27.8189C47.6284 27.2016 47.8747 26.6102 48.3122 26.1747C48.7497 25.7392 49.3426 25.4953 49.96 25.4967C50.5773 25.4981 51.1685 25.7448 51.604 26.1823L75.5207 50.0989C75.8427 50.4263 76.0617 50.841 76.1499 51.2916C76.238 51.7423 76.1916 52.209 76.0166 52.6335C75.8416 53.0581 75.5455 53.4217 75.1654 53.6794C74.7853 53.937 74.338 54.0772 73.8788 54.0825H73.8941Z" fill="white"/>
<path d="M33.6466 74.5325C33.0503 74.5347 32.4547 74.4839 31.8675 74.3805C30.1831 74.1153 28.5873 73.4493 27.2141 72.4385C25.8408 71.4277 24.7303 70.1017 23.9764 68.5722C23.7002 68.0198 23.6549 67.3803 23.8502 66.7944C24.0455 66.2084 24.4656 65.724 25.018 65.4478C25.5705 65.1716 26.2097 65.1261 26.7957 65.3214C27.3817 65.5167 27.8662 65.9368 28.1424 66.4892C28.5782 67.3506 29.2127 68.0959 29.9936 68.6634C30.7745 69.2309 31.6794 69.6045 32.6333 69.753C33.5871 69.9016 34.5624 69.821 35.4789 69.5179C36.3954 69.2148 37.2265 68.6977 37.9036 68.0097L48.3036 57.6403C48.7387 57.2037 49.3294 56.9577 49.9458 56.9562V56.9562C50.2535 56.9557 50.5579 57.0158 50.8423 57.1332C51.1266 57.2506 51.3851 57.423 51.6029 57.6403L62.0181 68.0706C62.608 68.6641 63.3141 69.1295 64.092 69.4377C64.87 69.7459 65.7031 69.8902 66.5394 69.8616C67.3756 69.8331 68.197 69.6323 68.9522 69.2718C69.7073 68.9113 70.3797 68.3989 70.9277 67.7665L49.9458 46.7995L41.1576 55.5725C39.9529 56.7759 38.4793 57.6758 36.8587 58.1982C35.238 58.7207 33.5166 58.8508 31.8359 58.5776C30.1552 58.3044 28.5635 57.6358 27.1918 56.6269C25.8201 55.6181 24.7075 54.2979 23.946 52.7749C23.7292 52.3365 23.6553 51.8411 23.7344 51.3584C23.8135 50.8758 24.0416 50.43 24.387 50.0837L48.3036 26.1671C48.5193 25.9504 48.7754 25.7784 49.0575 25.6607C49.3397 25.5431 49.6424 25.4822 49.948 25.4815C50.2537 25.4807 50.5563 25.5402 50.8389 25.6565C51.1216 25.7728 51.3788 25.9438 51.5954 26.1595C51.8121 26.3751 51.9841 26.6312 52.1018 26.9134C52.2194 27.1955 52.2803 27.498 52.2811 27.8037C52.2818 28.1094 52.2222 28.4121 52.1058 28.6948C51.9895 28.9774 51.8185 29.2345 51.6029 29.4511L29.0092 52.045C29.5611 52.6661 30.2345 53.1676 30.9877 53.5185C31.7409 53.8693 32.558 54.0621 33.3887 54.0849C34.2193 54.1077 35.0457 53.96 35.8171 53.651C36.5884 53.342 37.288 52.8782 37.8732 52.2883L48.3036 41.858C48.7102 41.4478 49.2557 41.2046 49.8326 41.1765C50.4095 41.1484 50.976 41.3373 51.4206 41.706C51.5327 41.7904 51.6346 41.8872 51.7246 41.9948L75.5499 65.8203C75.9518 66.2106 76.2006 66.7322 76.2508 67.2901C76.301 67.848 76.1496 68.4054 75.8239 68.8612C75.0348 70.3446 73.9087 71.6224 72.5365 72.592C71.1643 73.5616 69.5842 74.1959 67.9225 74.4443C66.2607 74.6927 64.5637 74.5481 62.968 74.0221C61.3723 73.4961 59.9224 72.6035 58.7341 71.4157L49.9458 62.6274L41.1576 71.4157C39.1652 73.4079 36.4642 74.5286 33.6466 74.5325V74.5325Z" fill="white"/>
</svg>
