<svg width="256" height="256" viewBox="0 0 256 256" fill="none" xmlns="http://www.w3.org/2000/svg">
<g clip-path="url(#clip0)">
<mask id="mask0" mask-type="alpha" maskUnits="userSpaceOnUse" x="0" y="0" width="256" height="256">
<rect width="256" height="256" rx="78" fill="#C4C4C4"/>
</mask>
<g mask="url(#mask0)">
<rect x="294.122" y="-45.106" width="48" height="382.927" transform="rotate(81 294.122 -45.106)" fill="#EC3750"/>
<rect x="302.618" y="2.14661" width="48" height="384" transform="rotate(81 302.618 2.14661)" fill="#FF8C37"/>
<rect x="310.127" y="49.5556" width="48" height="384" transform="rotate(81 310.127 49.5556)" fill="#F1C40F"/>
<rect x="317.636" y="96.9647" width="48" height="384" transform="rotate(81 317.636 96.9647)" fill="#33D6A6"/>
<rect x="325.145" y="144.374" width="48" height="384" transform="rotate(81 325.145 144.374)" fill="#338EDA"/>
<rect x="332.654" y="191.783" width="48" height="384" transform="rotate(81 332.654 191.783)" fill="#A633D6"/>
<path d="M195.337 139.417C194.477 139.417 193.625 139.247 192.831 138.917C192.037 138.587 191.318 138.103 190.712 137.493L123.277 70.2042C122.051 68.974 121.364 67.308 121.368 65.5723C121.372 63.8365 122.066 62.1737 123.298 60.9492C124.53 59.7247 126.2 59.0388 127.938 59.0428C129.677 59.0468 131.341 59.7404 132.568 60.9706L199.917 128.217C200.824 129.137 201.441 130.303 201.689 131.57C201.937 132.837 201.807 134.149 201.314 135.343C200.821 136.537 199.987 137.559 198.917 138.284C197.847 139.008 196.587 139.402 195.294 139.417H195.337Z" fill="white"/>
<path d="M81.9998 196.916C80.3206 196.922 78.6434 196.779 76.9896 196.488C72.2464 195.743 67.7527 193.87 63.8856 191.028C60.0185 188.186 56.8913 184.458 54.7684 180.158C53.9905 178.604 53.863 176.806 54.413 175.159C54.963 173.511 56.1458 172.149 57.7015 171.373C59.2572 170.596 61.0575 170.468 62.7075 171.017C64.3576 171.567 65.7221 172.748 66.4999 174.301C67.7272 176.723 69.5139 178.818 71.7129 180.414C73.9119 182.009 76.4602 183.06 79.1461 183.478C81.8321 183.895 84.5786 183.669 87.1595 182.816C89.7403 181.964 92.0807 180.51 93.9875 178.576L123.274 149.42C124.499 148.193 126.163 147.501 127.898 147.497C128.765 147.496 129.622 147.665 130.423 147.995C131.224 148.325 131.952 148.809 132.565 149.42L161.894 178.747C163.555 180.416 165.544 181.724 167.734 182.591C169.925 183.458 172.271 183.863 174.626 183.783C176.981 183.703 179.294 183.138 181.421 182.124C183.547 181.111 185.44 179.67 186.984 177.892L127.898 118.94L103.151 143.606C99.7582 146.99 95.6086 149.52 91.0449 150.989C86.4812 152.458 81.6337 152.824 76.9008 152.056C72.1679 151.288 67.6857 149.408 63.8229 146.571C59.9601 143.735 56.8272 140.023 54.6827 135.741C54.0722 134.508 53.8642 133.115 54.0868 131.758C54.3095 130.401 54.952 129.147 55.9245 128.174L123.274 60.9277C123.881 60.3186 124.603 59.8349 125.397 59.5041C126.191 59.1734 127.044 59.002 127.905 59C128.765 58.998 129.617 59.1651 130.413 59.4921C131.209 59.8192 131.934 60.3 132.544 60.9063C133.154 61.5127 133.638 62.2328 133.97 63.0261C134.301 63.8194 134.473 64.67 134.474 65.5294C134.476 66.3889 134.309 67.2401 133.981 68.0349C133.654 68.8296 133.172 69.5523 132.565 70.1614L68.9407 133.688C70.495 135.435 72.3911 136.845 74.5122 137.831C76.6333 138.818 78.9343 139.36 81.2733 139.424C83.6123 139.488 85.9397 139.072 88.1118 138.204C90.2839 137.335 92.2539 136.031 93.9017 134.372L123.274 105.046C124.419 103.892 125.955 103.209 127.58 103.129C129.204 103.05 130.8 103.582 132.051 104.618C132.367 104.856 132.654 105.128 132.908 105.43L200 172.42C201.131 173.517 201.832 174.984 201.973 176.553C202.115 178.121 201.688 179.689 200.771 180.97C198.549 185.141 195.378 188.734 191.514 191.46C187.65 194.186 183.2 195.97 178.521 196.668C173.841 197.366 169.063 196.96 164.569 195.481C160.075 194.002 155.993 191.492 152.646 188.152L127.898 163.443L103.151 188.152C97.54 193.754 89.9341 196.905 81.9998 196.916Z" fill="white"/>
</g>
</g>
<defs>
<clipPath id="clip0">
<rect width="256" height="256" fill="white" transform="translate(256) rotate(90)"/>
</clipPath>
</defs>
</svg>
